<svg xmlns="http://www.w3.org/2000/svg" width="50" height="50" viewBox="0 0 1000 1000" xml:space="preserve"><switch><g><circle fill="#382B73" cx="500" cy="500" r="398"/><circle fill="#473080" cx="500" cy="500" r="344.3"/><path fill="#382B73" d="M742.5 618.9c.8-.8 1.6-1.7 2.4-2.5.6-.6 1.1-1.2 1.7-1.9l2.1-2.4c.2-.2.4-.4.5-.7.6-.8 1.3-1.6 1.9-2.4 13.1-17 20.9-38.3 20.9-61.5 0-55.7-45.2-100.9-100.9-100.9-46.2 0-85.2 31.1-97.1 73.5l-22.4-7.6v.1l-.8-.3-15.4-18.1-16 12.9 16-12.9v-23.6c11.1-14.5 17.2-33.4 20.5-52.4 9.5-.4 18.3-12.5 20.1-28.3 1.4-11.9-1.6-22.7-7-28.4v-.2c0-.4.1-.7.1-1.1 0-.3.1-.5.1-.8 0-.4.1-.8.1-1.2 0-.3.1-.5.1-.8 0-.4.1-.8.1-1.2 0-.2 0-.5.1-.7 0-.4.1-.9.1-1.3v-.6c0-.5.1-1.1.1-1.6v-.3c0-.7.1-1.3.1-2v-.2c0-.6.1-1.2.1-1.8V337.2c0-.4 0-.7-.1-1.1 0-.3 0-.6-.1-.8 0-.4 0-.7-.1-1.1 0-.3 0-.6-.1-.8 0-.3-.1-.7-.1-1 0-.3-.1-.6-.1-.8 0-.3-.1-.7-.1-1 0-.3-.1-.6-.1-.8 0-.3-.1-.7-.1-1 0-.3-.1-.5-.1-.8 0-.3-.1-.7-.1-1 0-.3-.1-.5-.1-.8-.1-.3-.1-.7-.2-1 0-.3-.1-.5-.1-.8-.1-.3-.1-.7-.2-1-.1-.3-.1-.5-.2-.8-.1-.3-.1-.7-.2-1-.1-.2-.1-.5-.2-.7-.1-.3-.2-.7-.2-1-.1-.2-.1-.5-.2-.7-.1-.3-.2-.7-.3-1-.1-.2-.1-.4-.2-.7-.1-.4-.2-.7-.3-1.1-.1-.2-.1-.4-.2-.5-.2-.5-.4-1.1-.6-1.6-3.6-9.8-10.1-15.4-16.9-18.6-.6-.3-1.1-.5-1.7-.8-4.6-1.9-9.1-2.8-12.9-3.2-.4 0-.8-.1-1.2-.1h-.4c-.3 0-.6 0-.9-.1h-6.4c0-.2-.1-.4-.2-.5 0-.1-.1-.2-.1-.3-.1-.3-.2-.7-.3-1 0-.1 0-.1-.1-.2s-.1-.3-.2-.4c-.2-.4-.3-.8-.5-1.2 0 0 0-.1-.1-.1 0-.1-.1-.2-.1-.3 0-.1-.1-.1-.1-.2-.2-.4-.3-.7-.5-1.1 0-.1-.1-.1-.1-.2-.3-.5-.6-1-.9-1.6 0-.1-.1-.2-.1-.2 0-.1-.1-.1-.1-.2 0 0 0-.1-.1-.1-.3-.4-.5-.8-.8-1.2 0 0 0-.1-.1-.1-.4-.5-.7-1-1.1-1.5-.1-.1-.1-.2-.2-.3l-.1-.1c-.8-.9-1.6-1.8-2.6-2.7l-.3-.3c-.5-.5-1-.9-1.5-1.4 0 0-.1-.1-.2-.1-.5-.4-1-.8-1.6-1.2-.1-.1-.2-.2-.4-.3-.6-.4-1.2-.8-1.8-1.3-.1-.1-.2-.1-.3-.2-.6-.4-1.2-.7-1.8-1.1-.1-.1-.2-.1-.4-.2l-2.1-1.2c-.2-.1-.3-.2-.5-.2-.7-.3-1.4-.7-2.1-1-.1 0-.2-.1-.3-.1-.8-.4-1.6-.7-2.4-1.1-.2-.1-.4-.2-.6-.2-.9-.4-1.7-.7-2.7-1-6.6-2.4-15.6-4.2-25.6-4.2-1 0-2 0-3 .1h-.1c-3 .1-6 .4-9 .9-.1 0-.3 0-.4.1-14.6 2.4-29.8 9.4-41.9 24.2-.1.2-.3.3-.4.5-3.4 4.2-6.5 9.1-9.3 14.6-.6 1.1-1.1 2.2-1.6 3.4-.1.2-.2.4-.2.5-.5 1.1-.9 2.2-1.4 3.3l-.3.6c-.4 1.1-.9 2.2-1.3 3.4-.1.1-.1.3-.1.4-.4 1.1-.8 2.2-1.1 3.4 0 .1-.1.2-.1.3-.4 1.2-.7 2.3-1 3.5-.1.2-.1.4-.2.6-.3 1.1-.6 2.3-.9 3.4-.1.2-.1.4-.1.6-.3 1.2-.5 2.4-.8 3.5v.2c-.2 1.2-.4 2.3-.7 3.5 0 .2-.1.4-.1.5-.2 1.2-.4 2.3-.5 3.5 0 .2-.1.5-.1.7-.2 1.1-.3 2.3-.4 3.4 0 .2 0 .4-.1.6-.1 1.1-.2 2.3-.3 3.4v.2c-.1 1.2-.2 2.3-.3 3.5v.6c-.1 1.1-.1 2.2-.2 3.4v.7c0 1.1-.1 2.2-.1 3.2-9.6 2-15.7 16.1-13.8 32.3 1.9 16.2 11.1 28.5 20.9 28.3 3.3 19 9.4 37.9 20.5 52.4v23.5l16 12.9-16-12.9-15.4 18.1-.7.2-13.3 4.5-71 24c-2.8 1.2-5.5 2.6-8.1 4.1-18.6 11-31.3 30-34.4 51.7l-8.5 61.6-1.7 11.9-1.1 7.8c-.1.8-.2 1.6-.2 2.4v.6c0 .7-.1 1.4 0 2.1v.3c0 1.7.2 3.3.4 4.9.4 2.6 1.1 5.1 2.1 7.5 5.1 12.2 17 21 31.3 21h352.1c14.3 0 26.3-8.8 31.3-21 1-2.4 1.7-4.9 2.1-7.5.3-1.6.4-3.3.4-4.9v-3c-.1-.8-.1-1.6-.2-2.4l-.7-5.3-2.2-15.8-1.4-9.8c22.8-2.7 42.7-13 57.8-28.2 0 .1 0 .1 0 0z"/><g><path fill="#1CAEE4" d="M656.1 697H303.9c-20.6 0-36.4-18.2-33.6-38.6l11.3-81.3c3.4-24.7 19.5-45.9 42.4-55.8l39.1-13.2 15.1-5.1 30.2-10.2 16.1-5.4h110.9l37.8 12.8 3.7 1.3 59 19.9c22.9 9.9 39 31.1 42.4 55.8l3.8 27.6 4.5 32.6 2.9 21.1c3 20.3-12.8 38.5-33.4 38.5z"/><path fill="#27C1E6" d="M281.6 588.2c3.4-24.7 19.5-45.9 42.4-55.8l100.5-33.9h110.9l100.5 33.9c22.9 9.9 39 31.1 42.4 55.8l11.2 80.4c.5-3.3.6-6.7.1-10.2l-11.3-81.3c-3.4-24.7-19.5-45.9-42.4-55.8l-100.5-33.9H424.5L324 521.3c-22.9 9.9-39 31.1-42.4 55.8l-11.3 81.3c-.5 3.5-.4 6.9.1 10.2l11.2-80.4z"/><path fill="#009ADD" d="M688.6 650.6c-4.1 13.8-17 24.2-32.5 24.2H303.9c-15.5 0-28.4-10.4-32.5-24.2l-1.1 7.8c-2.8 20.4 13 38.6 33.6 38.6H656c20.6 0 36.4-18.2 33.6-38.6l-1-7.8z"/><path fill="#E6E7E8" d="m552.2 494.1-16.7-19.8-55.5 45-55.5-44.9-16.7 19.8c-3.5 7.5-3.4 16.2.2 23.6l52.2 108.4 19.8 41.2 72-149.7c3.6-7.4 3.7-16.1.2-23.6z"/><path fill="#009ADD" d="m499.8 626.2-9.5-79.5h-20.6l-9.5 79.5 19.8 41.2z"/><path fill="#F7CB15" d="M424.5 421.7v52.7l55.5 44.9 55.5-44.9v-52.7z"/><path fill="#D1D3D4" d="m480 519.3-44.3 56.1-27.7-57.6c-3.6-7.5-3.7-16.1-.2-23.7l16.7-19.7 55.5 44.9zM480 519.3l44.3 56.1 27.7-57.6c3.6-7.5 3.7-16.1.2-23.7l-16.7-19.7-55.5 44.9z"/><path fill="#27C1E6" d="m500.8 544.6-15.3 15.3c-3.1 3.1-8 3.1-11.1 0l-15.3-15.3c-3.1-3.1-3.1-8 0-11.1l9.6-9.6c6.2-6.2 16.2-6.2 22.4 0l9.6 9.6c3.2 3.1 3.2 8 .1 11.1z"/><path fill="#1CAEE4" d="m497.3 529.9-11.7 11.7c-3.1 3.1-8 3.1-11.1 0l-11.7-11.7-3.5 3.5c-3.1 3.1-3.1 8 0 11.1l15.3 15.3c3.1 3.1 8 3.1 11.1 0l15.3-15.3c3.1-3.1 3.1-8 0-11.1l-3.7-3.5z"/><path fill="#009ADD" d="M480 660.2zM408 528.9c-2.7-5.5-3.4-11.7-2.2-17.6-.4-2.1-.6-4.2-.5-6.3l-27 9.1-15.1 5.1c-1.8 4.5-2.7 12.7 1.8 27.2 8.5 27.4 11.9 34.8 11.9 34.8l24-2.7-15.5 20.8s14.6 22.4 32.2 42.2c21.6 24.3 62.5 37.2 62.5 37.2l-19.8-41.2L408 528.9z"/><path fill="#009ADD" d="m480 667.4-3.1-6.5h-4.2v14.6h14.6v-14.6h-4.2z"/><path fill="#27C1E6" d="M480 667.4s-40.9-12.9-62.5-37.2c-17.6-19.8-32.2-42.2-32.2-42.2l15.5-20.8-24 2.7s-3.3-7.4-11.9-34.8c-4.5-14.5-3.6-22.7-1.8-27.2l15.1-5.1 30.2-10.2-.6 1.4c-3.5 7.5-3.4 16.2.2 23.6L460.2 626l19.8 41.4z"/><path fill="#009ADD" d="M480 660.1zM596.9 519.1l-15.1-5.1-27-9.1c.1 2.1-.1 4.2-.5 6.3 1.2 5.9.5 12.1-2.2 17.6l-52.2 108.4-19.9 41.3s40.9-12.9 62.5-37.2c17.6-19.8 32.2-42.2 32.2-42.2l-15.5-20.8 24 2.7s3.3-7.4 11.9-34.8c4.5-14.4 3.6-22.6 1.8-27.1z"/><path fill="#27C1E6" d="M480 667.4s40.9-12.9 62.5-37.2c17.6-19.8 32.2-42.2 32.2-42.2l-15.5-20.8 24 2.7s3.3-7.4 11.9-34.8c4.5-14.5 3.6-22.7 1.8-27.2l-15.1-5.1-30.2-10.2.6 1.4c3.5 7.5 3.4 16.2-.2 23.6L499.8 626 480 667.4z"/><g><path fill="#FFF335" d="M559.5 351.8c0 47-8.5 125-79.5 125s-79.5-78-79.5-125 7.4-85.1 79.5-85.1 79.5 38.1 79.5 85.1z"/><path fill="#FEDE3A" d="M480 454.6c-65.6 0-77.9-66.7-79.3-113.8-.1 3.6-.2 7.3-.2 11 0 47 8.5 125 79.5 125s79.5-78 79.5-125c0-3.7 0-7.4-.2-11-1.4 47.1-13.7 113.8-79.3 113.8z"/><ellipse transform="rotate(-6.686 401.443 367.943)" fill="#FFF335" cx="401.6" cy="368" rx="18.5" ry="30.6"/><ellipse transform="rotate(-83.316 557.678 368.031)" fill="#FFF335" cx="557.7" cy="368" rx="30.6" ry="18.5"/><g fill="#FEDE3A"><path d="M404.4 370.5c-1-8.7-.8-16.8.3-23.4-.4 0-.9 0-1.3.1-8.1.9-13.5 11.4-12.1 23.4 1.4 12 9.1 20.9 17.1 19.9.2 0 .3-.1.5-.1-2-5.7-3.6-12.5-4.5-19.9zM555.6 370.5c1-8.7.8-16.8-.3-23.4.4 0 .9 0 1.3.1 8.1.9 13.5 11.4 12.1 23.4-.6 4.8-2.2 9.6-5 13.5-1.2 1.6-2.6 3.1-4.3 4.3-1.2.9-3.7 2.4-5.2 2.1.1-1 0-2.1-.4-3-.1-.2-.3-.5-.4-.7-1-2.3.4-5.2.9-7.5.5-3 1-5.9 1.3-8.8z"/></g><path fill="#1CAEE4" d="M520.3 302.2s-17.1 26.5-46.8 28.9c-29.7 2.4-50.6 4.3-58.9 18.9-8.3 14.7.2 42.3-6.4 42.3s-22-63.2.8-108.8 68.5-43.9 89.7-36.2c21.2 7.7 28.1 19.9 28.1 32.6 0 12.5-6.5 22.3-6.5 22.3z"/><path fill="#009ADD" d="M511.6 253.5c2.9 4.8 4.1 9.9 4.1 15.1 0 12.6-6.5 22.4-6.5 22.4s-17.1 26.5-46.8 28.9c-29.7 2.4-50.6 4.3-58.9 18.9-5.1 9-3.8 23-3.7 32.4 2.5 12.7 6 21 8.4 21 6.6 0-1.9-27.6 6.4-42.3 8.3-14.7 29.2-16.5 58.9-18.9 29.7-2.4 46.8-28.9 46.8-28.9s6.5-9.8 6.5-22.4c0-9.5-4-18.8-15.2-26.2z"/><path fill="#1CAEE4" d="M525.7 271.6s30.8-3.4 40.3 22.7c12.5 34.4-6.1 96.3-11.6 96.3-5.6 0 1.8-30.3-6.6-57.5-8.4-27.1-28.7-29.2-28.7-29.2l6.6-32.3z"/><path fill="#009ADD" d="M558.9 322c-8.4-27.1-28.7-29.2-28.7-29.2l4.3-21c-5.2-.5-8.8-.1-8.8-.1l-6.6 32.3s20.3 2.1 28.7 29.2c8.4 27.1 1 57.5 6.6 57.5 2 0 5.5-7.7 8.8-19.1-.2-11 1.4-31-4.3-49.6z"/><path fill="#27C1E6" d="M411.2 288.9c22.8-45.6 68.5-43.9 89.7-36.2 13.2 4.8 20.9 11.4 24.8 18.7-2.7-9.5-10.5-18.2-27-24.3-21.2-7.7-66.9-9.4-89.7 36.2-19.6 39.2-11 91.6-4 105.4-6.2-19-11.4-64.6 6.2-99.8zM566 294.3c-9.5-26.1-40.3-22.7-40.3-22.7l-1.1 5.4c7.2-.2 30.1 1 38.1 22.8 10.1 27.9-.2 73.9-7.4 90.3 6.4-5.6 22.6-63.1 10.7-95.8z"/><path fill="#FEDE3A" d="M480 407.2c-6.6 0-12.2-3.6-13.7-8.5-.3.9-.4 1.8-.4 2.7 0 6.2 6.3 11.2 14.1 11.2s14.1-5 14.1-11.2c0-.9-.2-1.8-.4-2.7-1.5 4.9-7.1 8.5-13.7 8.5z"/></g><path fill="#FFF" d="m480 519.3-48.1 48.1-23.9-49.6c-3.6-7.5-3.7-16.1-.2-23.7l16.7-19.7 55.5 44.9zM480 519.3l48.1 48.1 23.9-49.7c3.6-7.5 3.7-16.1.2-23.7l-16.7-19.7-55.5 45z"/><path fill="#009ADD" d="M686.7 637.3c-5.1.8-10.3 1.2-15.6 1.2-25.8 0-49.3-9.7-67.1-25.6-.8-.7-1.6-1.4-2.4-2.2-.6-.6-1.3-1.2-1.9-1.8-18.3-18.3-29.5-43.5-29.5-71.3 0-12.8 2.4-25 6.7-36.3l59 19.9c22.9 9.9 39 31.1 42.4 55.8l3.8 27.6 4.6 32.7z"/><g><circle fill="#FFF" cx="671.1" cy="527.6" r="100.9"/><path fill="#E6E7E8" d="M715.8 486.2c-11.8-11.8-28.5-13.6-38-4.1-2.9 2.9-4.8 6.5-5.6 10.4-1.4 6.7.2 14.4 4.6 21.3L620.7 570l26 26 11.3-11.3-14.6-14.7 8.3-8.3 14.7 14.7 11.3-11.3-14.7-14.7 25.2-25.2c10.9 7 23.8 6.9 31.7-1 9.5-9.5 7.7-26.2-4.1-38zm-6.3 25.1c-.2.6-.5 1.1-1 1.5-2.7 2.7-9.8 1.5-15.4-4.1-1.1-1.1-2-2.3-2.8-3.4 0-.1-.1-.1-.1-.2-3-4.7-3.3-9.7-1.2-11.8l.1-.1c.2-.2.5-.4.7-.5.3-.2.5-.3.9-.4.3-.1.6-.2 1-.2.2 0 .3-.1.5-.1h1.9c.1 0 .3 0 .4.1.2 0 .4.1.6.1.2 0 .4.1.6.1.2.1.4.1.6.2.4.1.9.3 1.3.5.2.1.5.2.7.3.4.2.9.4 1.3.7.2.1.4.3.7.4.9.5 1.8 1.2 2.7 1.9.4.4.8.7 1.3 1.1 4.9 4.8 6.5 10.6 5.2 13.9z"/><path fill="#FEDE3A" d="M715.8 476.2c-11.8-11.8-28.5-13.6-38-4.1-2.9 2.9-4.8 6.5-5.6 10.4-1.4 6.7.2 14.4 4.6 21.3L620.7 560l26 26 11.3-11.3-14.6-14.7 8.3-8.3 14.7 14.7 11.3-11.3-14.7-14.7 25.2-25.2c10.9 7 23.8 6.9 31.7-1 9.5-9.5 7.7-26.2-4.1-38zm-6.3 25.1c-.2.6-.5 1.1-1 1.5-2.7 2.7-9.8 1.5-15.4-4.1-1.1-1.1-2-2.3-2.8-3.4 0-.1-.1-.1-.1-.2-3-4.7-3.3-9.7-1.2-11.8l.1-.1c.2-.2.5-.4.7-.5.3-.2.5-.3.9-.4.3-.1.6-.2 1-.2.2 0 .3-.1.5-.1h1.9c.1 0 .3 0 .4.1.2 0 .4.1.6.1.2 0 .4.1.6.1.2.1.4.1.6.2.4.1.9.3 1.3.5.2.1.5.2.7.3.4.2.9.4 1.3.7.2.1.4.3.7.4.9.5 1.8 1.2 2.7 1.9.4.4.8.7 1.3 1.1 4.9 4.8 6.5 10.6 5.2 13.9z"/><g fill="#F7CB15"><path d="m680.6 501.3-3.8 2.5c-4.4-6.9-6-14.6-4.6-21.3.8 3.9 4 12.3 8.4 18.8zM666.3 556.4l-14.7-14.7-13.2 13.3 5 5 8.2-8.3 14.7 14.7 11.3-11.3-5-5zM646.7 576l-21-21-5 5 26 26 11.3-11.4-5-5zM719.9 504.2c-7.9 7.9-20.8 8-31.7 1L658 535.4l5 5 25.2-25.2c10.9 7 23.8 6.9 31.7-1 5.3-5.3 7.1-12.8 5.6-20.5-.8 4-2.7 7.6-5.6 10.5z"/></g><path fill="#F7CB15" d="M709.5 501.3c1.2-3.3-.3-9.1-5-13.8-.4-.4-.8-.8-1.3-1.1-.9-.8-1.8-1.4-2.7-1.9-.2-.1-.4-.3-.7-.4-.4-.3-.9-.5-1.3-.7-.2-.1-.4-.2-.7-.3-.4-.2-.9-.3-1.3-.5-.2-.1-.4-.1-.6-.2-.2 0-.4-.1-.6-.1-.2 0-.4-.1-.6-.1-.2 0-.4 0-.6-.1H692.4c-.2 0-.4 0-.5.1-.3.1-.7.1-1 .2-.3.1-.6.2-.9.4-.3.1-.5.3-.7.5l-.1.1c-2.1 2.1-1.8 7.1 1.2 11.8-.7-1.1-1.4-2.2-2.1-3.4-2-3.6-4-7.9-3.1-12.1 1.1-5.3 6.1-8.7 11.4-7.1 2.9.9 5.9 2.6 7.9 4.9 11.1 11.9 7.7 21.2 5 23.8z"/><path fill="#D1D3D4" d="M671.1 611.7c-52.9 0-96.2-40.7-100.5-92.5-.2 2.8-.4 5.6-.4 8.4 0 55.7 45.2 100.9 100.9 100.9S772 583.3 772 527.6c0-2.8-.1-5.6-.4-8.4-4.2 51.8-47.6 92.5-100.5 92.5z"/></g></g></g></switch></svg>