<svg xmlns="http://www.w3.org/2000/svg"  width="50" height="50" viewBox="0 0 32 32"><path fill="#c2410c" d="M24.52 2h-15A3.48 3.48 0 0 0 6 5.48V7H5a1 1 0 0 0 0 2h1v6H5a1 1 0 0 0 0 2h1v6H5a1 1 0 0 0 0 2h1v1.52A3.48 3.48 0 0 0 9.48 30h15A3.48 3.48 0 0 0 28 26.52v-21A3.48 3.48 0 0 0 24.52 2zM26 26.52A1.49 1.49 0 0 1 24.52 28h-15A1.49 1.49 0 0 1 8 26.52V25a1 1 0 0 0 0-2v-6a1 1 0 0 0 0-2V9a1 1 0 0 0 0-2V5.48A1.49 1.49 0 0 1 9.48 4h15A1.49 1.49 0 0 1 26 5.48z"/><path fill="#c2410c" d="M20 15.6a3.94 3.94 0 0 0 1-2.6 4 4 0 0 0-8 0 3.94 3.94 0 0 0 1 2.6 5.48 5.48 0 0 0-3 4.87V23a1 1 0 0 0 1 1h10a1 1 0 0 0 1-1v-2.53a5.48 5.48 0 0 0-3-4.87zM17 11a2 2 0 1 1-2 2 2 2 0 0 1 2-2zm4 11h-8v-1.53A3.48 3.48 0 0 1 16.47 17h1.06A3.48 3.48 0 0 1 21 20.47z"/></svg>