<svg xmlns="http://www.w3.org/2000/svg" width="100" height="100" viewBox="0 0 512 512" style="enable-background:new 0 0 512 512" xml:space="preserve"><circle style="fill:#556aac" cx="256" cy="256" r="256"/><path style="fill:#4a5d8f" d="M454.11 355.88c0 29.19-6.36 56.91-17.77 81.82a257.593 257.593 0 0 1-22.44 19.82c-20.99 16.47-44.61 29.73-70.14 39.03-20.44 7.47-42.1 12.4-64.59 14.42-7.63.68-15.36 1.03-23.17 1.03-9.18 0-18.24-.48-27.17-1.43a253.297 253.297 0 0 1-57.15-12.79 252.821 252.821 0 0 1-29.58-12.46 256.344 256.344 0 0 1-41.42-25.8c-7.05-5.4-13.82-11.15-20.27-17.23-12.77-26.08-19.94-55.41-19.94-86.41 0-35.43 9.36-68.67 25.74-97.38 1.42-2.49 2.89-4.94 4.42-7.36a197.68 197.68 0 0 1 21.24-27.89c3.53-3.87 7.21-7.59 11.04-11.17 1.3-1.22 2.62-2.42 3.96-3.61 22.74-20.13 50.16-35.08 80.43-43 .12-.04.23-.07.35-.09 5.09-1.33 10.26-2.45 15.5-3.37 5.88-1.03 11.84-1.79 17.89-2.29 5.36-.44 10.78-.66 16.25-.66 19.06 0 37.48 2.71 54.91 7.77 27.07 7.84 51.74 21.35 72.64 39.15 1.77 1.51 3.51 3.04 5.22 4.61 1.97 1.81 3.91 3.65 5.81 5.54a197.036 197.036 0 0 1 28.21 35.22c1.48 2.35 2.91 4.73 4.29 7.15 16.38 28.71 25.74 61.95 25.74 97.38z"/><path style="fill:#cba17e" d="M390.064 186.595h68.116v71.91h-68.116z"/><path style="fill:#dc4355" d="M512 256c0 69.98-28.09 133.4-73.59 179.62-.69.7-1.38 1.39-2.07 2.08a257.593 257.593 0 0 1-22.44 19.82c-20.99 16.47-44.61 29.73-70.14 39.03-20.44 7.47-42.1 12.4-64.59 14.42V307.7s2.73-17.09 15.31-32.2c.59-.7 1.19-1.4 1.82-2.09.31-.35.63-.69.96-1.04.33-.34.66-.68 1-1.02 5.72-5.77 13.09-10.95 22.53-14.36 5-1.81 9.87-3.88 14.54-6.12 1.68-.79 3.32-1.61 4.94-2.44 3.01-1.54 5.91-3.14 8.7-4.75 6.09-3.52 11.62-7.13 16.43-10.5 6.37-4.44 11.48-8.46 14.9-11.28 3.12-2.58 4.84-4.15 4.84-4.15-.11 3.33 1.85 7.64 4.92 12.29 2.33 3.53 5.3 7.26 8.48 10.9v.01c.3.34.6.67.91.99.28.3.57.6.87.88.06.06.12.12.18.17.23.23.47.45.71.66.17.16.35.31.52.45.32.28.65.55.98.81.12.1.24.19.36.28.15.12.31.23.47.35.99.73 2.02 1.39 3.07 1.98 3.02 1.69 6.26 2.84 9.58 3.44 2.6.46 5.26.59 7.89.39 2.07-.17 4.13-.55 6.15-1.13a30.51 30.51 0 0 0 14.51-9.27c7.35-8.43 13.59-17.33 13.4-23.2 0 0 .01.01.04.03.35.33 3.01 2.73 7.46 6.29 3.9 3.11 9.19 7.11 15.51 11.37 8.52 5.73 18.89 11.93 30.33 17.08.1.04.2.1.31.13.06.03.13.06.19.08.01 1.09.02 2.18.02 3.27z"/><path style="fill:#9f354d" d="M406.61 247.52c-.58.31-1.17.61-1.75.91-1.62.83-3.27 1.65-4.95 2.44-3.19 1.53-6.48 2.99-9.85 4.34-1.54.61-3.11 1.21-4.68 1.78-.27.1-.53.19-.79.3-1.05.39-2.08.81-3.07 1.25-32.15 14.09-37.76 49.16-37.76 49.16v188.85c-20.44 7.47-42.1 12.4-64.59 14.42V307.7s2.73-17.09 15.31-32.2c.59-.7 1.19-1.4 1.82-2.09.31-.35.63-.69.96-1.04.33-.34.66-.68 1-1.02 5.72-5.77 13.09-10.95 22.53-14.36 5-1.81 9.87-3.88 14.54-6.12 1.68-.79 3.32-1.61 4.94-2.44 3.01-1.54 5.91-3.14 8.7-4.75 6.09-3.52 11.62-7.13 16.43-10.5 6.37-4.44 11.48-8.46 14.9-11.28 3.12-2.58 4.84-4.15 4.84-4.15-.11 3.33 1.85 7.64 4.92 12.29 2.33 3.53 5.3 7.26 8.48 10.9v.01c.3.34.6.67.91.99.28.3.58.59.87.88.06.06.12.12.18.17.24.23.47.45.71.66.17.16.35.31.52.45.32.28.65.55.98.81.12.1.24.19.36.28.15.12.31.24.47.35.99.73 2.02 1.39 3.07 1.98z"/><path style="fill:#f8e78f" d="M394.376 196.435s-30.156 11.249-3.062 80.792c0 0 8.175-28.635 25.049-26.078 0-.001-28.123-33.238-21.987-54.714zM451.399 196.506s30.156 11.249 3.062 80.792c0 0-8.175-28.635-25.049-26.078-.001-.001 28.123-33.238 21.987-54.714z"/><path style="fill:#e8b88f" d="M488.434 137.688c-.364 2.82-1.392 10.37-2.684 15.201 0 0-1.055 22.733-12.281 21.586a71.268 71.268 0 0 1-1.701 4.63c-1.938 4.794-5.449 12.18-10.88 19.212-7.869 10.17-19.758 19.613-36.769 19.421-17.002.191-28.891-9.251-36.751-19.421-5.44-7.032-8.951-14.418-10.889-19.212-1.301-3.22-1.901-5.267-1.901-5.267 1.21-8.86-3.63-41.89-3.63-41.89-2.82-23.36 3.63-51.96 3.63-51.96 8.86-26.18 49.541-24.57 49.541-24.57s40.68-1.61 49.541 24.57c0 0 6.45 28.6 3.63 51.96 0 0-.173 1.183-.446 3.157 2.938-1.956 8.424-4.667 11.098.082a4.04 4.04 0 0 1 .492 2.501z"/><path style="fill:#d2a886" d="M417.947 197.727c-7.459-9.863-11.592-21.82-12.395-34.16-.847-13.026-3.57-31.619-3.57-31.619-2.816-23.367 3.622-51.957 3.622-51.957 5.234-15.453 21.55-21.221 34.04-23.355-8.686-1.487-15.521-1.215-15.521-1.215s-40.682-1.612-49.549 24.57c0 0-6.438 28.59-3.622 51.957 0 0 .173 1.183.445 3.156-2.942-1.959-8.42-4.666-11.099.08a4.043 4.043 0 0 0-.485 2.501c.36 2.822 1.392 10.372 2.682 15.208 0 0 1.054 22.726 12.281 21.585 1.75 5.426 15.287 43.642 49.348 43.262 5.745.068 10.911-.965 15.521-2.77-9.325-3.608-16.443-10.294-21.698-17.243z"/><path style="fill:#ebb141" d="M485.056 98.117s-2.622-23.645-18.203-35.418a7.95 7.95 0 0 0-1.207-4.124c-6.685-10.828-20.378-22.707-48.287-22.707 0 0-58.444 3.711-57.164 52.521a6.438 6.438 0 0 0 3.312 5.479c-1.045 14.02-1.035 29.922 7.89 41.235 0 0 6.368-23.263 5.335-41.73a36.746 36.746 0 0 0 5.454-2.28s34.679-30.246 74.777-20.607c2.179.524 4.21.155 5.86-.786 8.047 7.719 17.034 24.771 14.468 62.247 0 0 11.455-9.334 7.765-33.83z"/><path style="fill:#bc8a37" d="M382.154 88.393c.011.817.182 1.601.488 2.328-.295.238-.454.375-.454.375a37.414 37.414 0 0 1-5.45 2.282c1.033 18.462-5.341 41.726-5.341 41.726-8.924-11.309-8.932-27.215-7.887-41.238a6.441 6.441 0 0 1-3.315-5.473c-1.272-48.812 57.168-52.524 57.168-52.524 5.109 0 9.753.397 13.954 1.124-15.952 3.042-50.151 13.942-49.163 51.4z"/><path style="fill:#cba17e" d="M54.789 186.595h68.116v71.91H54.789z"/><path style="fill:#8adb8c" d="M228.83 307.71v202.86a253.297 253.297 0 0 1-57.15-12.79 252.821 252.821 0 0 1-29.58-12.46 256.344 256.344 0 0 1-41.42-25.8c-7.05-5.4-13.82-11.15-20.27-17.23-2.87-2.7-5.67-5.47-8.41-8.3-29.96-30.97-52.18-69.49-63.52-112.42C2.95 300.64 0 278.66 0 256c0-1.71.02-3.42.05-5.13 1.68-.79 3.33-1.61 4.95-2.44 1.19-.61 2.37-1.23 3.53-1.86 1.16-.63 2.31-1.26 3.43-1.9.57-.32 1.13-.64 1.68-.96a225.762 225.762 0 0 0 16.48-10.53c6.37-4.44 11.48-8.46 14.9-11.28 3.12-2.58 4.84-4.15 4.84-4.15-.04 1.35.25 2.87.83 4.49.15.44.33.88.52 1.34.48 1.13 1.07 2.3 1.76 3.52.28.48.57.97.87 1.47.3.49.62.98.95 1.48a70.896 70.896 0 0 0 1.59 2.31c.55.77 1.13 1.55 1.73 2.33.4.52.81 1.04 1.22 1.56.3.38.61.76.92 1.14l1 1.21c.66.78 1.33 1.56 2.01 2.34v.01c.3.34.6.67.91.99.28.3.57.6.87.88.02.02.05.04.07.06.32.32.64.62.97.9.27.24.54.47.81.69l.34.28c.27.22.54.43.82.63.07.05.14.1.21.16.3.22.6.43.9.63.27.19.54.36.81.53.45.29.9.56 1.36.82a30.651 30.651 0 0 0 19.3 3.62c1.46-.2 2.91-.51 4.33-.92a30.633 30.633 0 0 0 14.5-9.27c7.36-8.43 13.59-17.33 13.4-23.2 0 0 .02.02.05.04.39.36 3.04 2.75 7.45 6.27 3.9 3.11 9.2 7.12 15.52 11.38 4.84 3.26 10.29 6.67 16.18 9.95 4.47 2.49 9.21 4.9 14.14 7.13.1.04.21.1.32.13 3.47 1.57 7.04 3.02 10.68 4.34a61.03 61.03 0 0 1 11.36 5.47c25.56 15.77 30.27 45.25 30.27 45.25z"/><path style="fill:#78c478" d="M71.33 247.52c-.57.31-1.16.61-1.74.91-1.62.83-3.27 1.65-4.95 2.44-3.2 1.53-6.49 2.99-9.85 4.33-1.55.62-3.11 1.22-4.69 1.79-.26.09-.52.19-.78.29C14.44 270.41 8.48 307.7 8.48 307.7v13.87C2.95 300.64 0 278.66 0 256c0-1.71.02-3.42.05-5.13 1.68-.79 3.33-1.61 4.95-2.44 1.19-.61 2.37-1.23 3.53-1.86 1.16-.63 2.31-1.26 3.43-1.9.57-.32 1.13-.64 1.68-.96.9-.52 1.8-1.04 2.67-1.57 5.06-3.02 9.7-6.08 13.81-8.96 6.37-4.44 11.48-8.46 14.9-11.28 3.12-2.58 4.84-4.15 4.84-4.15-.04 1.35.25 2.87.83 4.49.15.44.33.88.52 1.34.48 1.13 1.07 2.3 1.76 3.52.27.48.57.97.87 1.47.3.49.62.98.95 1.48.17.26.34.52.52.78a82.123 82.123 0 0 0 2.8 3.86c.4.52.8 1.04 1.22 1.56.3.38.61.76.92 1.14l1 1.21c.66.78 1.33 1.56 2.01 2.34v.01c.3.34.6.67.91.99.28.3.57.59.87.88.02.02.05.04.07.06a27.196 27.196 0 0 0 1.78 1.59l.34.28c.27.21.54.42.82.63.07.05.14.1.21.16.29.21.6.43.9.63.27.19.54.36.81.53.45.29.9.56 1.36.82z"/><path style="fill:#fff" d="M59.101 196.435s-30.156 11.249-3.062 80.792c0 0 8.175-28.635 25.049-26.078.001-.001-28.123-33.238-21.987-54.714zM116.124 196.506s30.156 11.249 3.062 80.792c0 0-8.175-28.635-25.049-26.078-.001-.001 28.123-33.238 21.987-54.714z"/><path style="fill:#e8b88f" d="M153.16 137.688c-.364 2.82-1.392 10.37-2.684 15.201 0 0-1.055 22.733-12.281 21.586a71.268 71.268 0 0 1-1.701 4.63c-1.938 4.794-5.449 12.18-10.88 19.212-7.869 10.17-19.758 19.613-36.769 19.421-17.002.191-28.891-9.251-36.751-19.421-5.44-7.032-8.951-14.418-10.889-19.212-1.301-3.22-1.901-5.267-1.901-5.267 1.21-8.86-3.63-41.89-3.63-41.89-2.82-23.36 3.63-51.96 3.63-51.96 8.86-26.18 49.541-24.57 49.541-24.57s40.68-1.61 49.541 24.57c0 0 6.45 28.6 3.63 51.96 0 0-.173 1.183-.446 3.157 2.938-1.956 8.424-4.667 11.098.082.428.754.601 1.637.492 2.501z"/><path style="fill:#d2a886" d="M82.672 197.727c-7.459-9.863-11.592-21.82-12.395-34.16-.847-13.026-3.57-31.619-3.57-31.619-2.816-23.367 3.622-51.957 3.622-51.957 5.234-15.453 21.55-21.221 34.04-23.355-8.686-1.487-15.521-1.215-15.521-1.215s-40.682-1.612-49.549 24.57c0 0-6.438 28.59-3.622 51.957 0 0 .173 1.183.445 3.156-2.942-1.959-8.42-4.666-11.099.08a4.043 4.043 0 0 0-.485 2.501c.36 2.822 1.392 10.372 2.682 15.208 0 0 1.054 22.726 12.281 21.585 1.75 5.426 15.287 43.642 49.348 43.262 5.745.068 10.911-.965 15.521-2.77-9.325-3.608-16.443-10.294-21.698-17.243z"/><path style="fill:#dc4355" d="M149.781 98.117s-2.622-23.645-18.203-35.418a7.95 7.95 0 0 0-1.207-4.124c-6.685-10.828-20.378-22.707-48.287-22.707 0 0-58.444 3.711-57.164 52.521a6.438 6.438 0 0 0 3.312 5.479c-1.045 14.02-1.035 29.922 7.89 41.235 0 0 6.368-23.263 5.335-41.73a36.746 36.746 0 0 0 5.454-2.28s34.679-30.246 74.777-20.607c2.179.524 4.21.155 5.86-.786 8.047 7.719 17.034 24.771 14.468 62.247 0 0 11.455-9.334 7.765-33.83z"/><path style="fill:#9f354d" d="M46.879 88.393c.011.817.182 1.601.488 2.328-.295.238-.454.375-.454.375a37.414 37.414 0 0 1-5.45 2.282c1.033 18.462-5.341 41.726-5.341 41.726-8.924-11.309-8.932-27.215-7.887-41.238a6.441 6.441 0 0 1-3.315-5.473c-1.272-48.812 57.168-52.524 57.168-52.524 5.109 0 9.753.397 13.954 1.124-15.952 3.042-50.151 13.942-49.163 51.4z"/><path style="fill:#cba17e" d="M222.583 174.57h74.88v79.05h-74.88z"/><path style="fill:#f8e78f" d="M413.9 307.71v149.81c-20.99 16.47-44.61 29.73-70.14 39.03-20.44 7.47-42.1 12.4-64.59 14.42-7.63.68-15.36 1.03-23.17 1.03-9.18 0-18.24-.48-27.17-1.43a253.297 253.297 0 0 1-57.15-12.79 252.821 252.821 0 0 1-29.58-12.46 256.344 256.344 0 0 1-41.42-25.8V307.71s2.99-18.73 16.77-35.33c.66-.79 1.35-1.59 2.06-2.37.69-.76 1.41-1.52 2.15-2.26.49-.5 1-1 1.52-1.48.26-.25.51-.49.77-.73 5.93-5.44 13.32-10.27 22.48-13.58 5.38-1.94 10.61-4.17 15.63-6.57.12-.05.23-.1.35-.16 1.85-.87 3.66-1.77 5.44-2.68.66-.34 1.31-.67 1.96-1.02 2.59-1.37 5.1-2.76 7.54-4.17.61-.35 1.22-.7 1.81-1.06 1.2-.71 2.38-1.42 3.54-2.13a248.963 248.963 0 0 0 12.77-8.38c4.37-3.05 8.2-5.92 11.37-8.38.48-.38.94-.74 1.38-1.09 1.35-1.07 2.56-2.05 3.62-2.93 3.43-2.83 5.33-4.57 5.33-4.57-.12 3.67 2.04 8.4 5.41 13.51v.01c2.56 3.88 5.82 7.98 9.32 11.98.33.37.66.74 1 1.09.31.33.63.66.96.97.74.72 1.51 1.4 2.3 2.03a30.992 30.992 0 0 0 4.27 2.94c3.41 1.98 7.11 3.3 10.89 3.98 5.12.91 10.41.64 15.42-.81 5.95-1.73 11.52-5.13 15.95-10.2 8.08-9.26 14.94-19.05 14.72-25.5l.05.05c.41.37 3.33 3 8.2 6.88 4.29 3.43 10.11 7.83 17.05 12.52 7.57 5.09 16.48 10.52 26.26 15.41 2.31 1.15 4.67 2.28 7.08 3.36.11.05.23.11.35.15 3.82 1.72 7.74 3.32 11.75 4.77 4.96 1.79 9.4 4.03 13.37 6.58 1.51.95 2.94 1.96 4.31 3 3.18 2.4 6.01 5.01 8.53 7.7 16.15 17.28 19.54 38.47 19.54 38.47z"/><path style="fill:#d9cb80" d="M240.77 241.55c-.63.34-1.28.67-1.92 1-1.78.91-3.59 1.81-5.44 2.68-3.51 1.69-7.13 3.29-10.83 4.76-1.7.69-3.42 1.34-5.15 1.97-.29.1-.58.21-.86.32-7.02 2.64-12.97 6.17-18.01 10.18-22.51 17.89-26.88 45.25-26.88 45.25v190.07a252.821 252.821 0 0 1-29.58-12.46 256.344 256.344 0 0 1-41.42-25.8V307.71s2.99-18.73 16.77-35.33c.66-.79 1.35-1.59 2.06-2.37.69-.76 1.41-1.52 2.15-2.26.49-.5 1-1 1.52-1.48v-.01c.25-.24.51-.48.77-.72 5.93-5.44 13.32-10.27 22.48-13.58 5.38-1.94 10.61-4.17 15.63-6.57.12-.05.23-.1.35-.16 1.85-.87 3.66-1.77 5.44-2.68.66-.34 1.31-.67 1.96-1.02 2.59-1.36 5.1-2.75 7.54-4.17.61-.35 1.22-.7 1.81-1.06 1.2-.71 2.38-1.42 3.54-2.13a248.963 248.963 0 0 0 12.77-8.38c4.37-3.05 8.2-5.92 11.37-8.38.48-.38.94-.74 1.38-1.09 1.35-1.07 2.56-2.05 3.62-2.93 3.43-2.83 5.33-4.57 5.33-4.57-.12 3.67 2.04 8.4 5.41 13.51v.01c2.56 3.88 5.82 7.98 9.32 11.98.33.37.66.74 1 1.09.31.33.63.66.96.97.74.72 1.51 1.4 2.3 2.03.27.23.54.44.81.64 1.11.85 2.27 1.62 3.46 2.3.11.07.23.14.34.2z"/><path style="fill:#85c7ec" d="M227.323 185.388s-33.151 12.367-3.366 88.814c0 0 8.987-31.478 27.537-28.668 0 0-30.917-36.538-24.171-60.146zM290.008 185.466s33.151 12.367 3.366 88.814c0 0-8.987-31.478-27.537-28.668 0 0 30.916-36.538 24.171-60.146z"/><path style="fill:#e8b88f" d="M330.721 120.807c-.4 3.1-1.53 11.4-2.95 16.71 0 0-1.16 24.99-13.5 23.73-.3.92-.91 2.72-1.87 5.09-2.13 5.27-5.99 13.39-11.96 21.12-8.65 11.18-21.72 21.56-40.42 21.35-18.69.21-31.76-10.17-40.4-21.35-5.98-7.73-9.84-15.85-11.97-21.12-1.43-3.54-2.09-5.79-2.09-5.79 1.33-9.74-3.99-46.05-3.99-46.05-3.1-25.68 3.99-57.12 3.99-57.12 9.74-28.78 54.46-27.01 54.46-27.01s44.72-1.77 54.46 27.01c0 0 7.09 31.44 3.99 57.12 0 0-.19 1.3-.49 3.47 3.23-2.15 9.26-5.13 12.2.09.47.83.66 1.8.54 2.75z"/><path style="fill:#d2a886" d="M253.234 186.808c-8.2-10.843-12.744-23.987-13.625-37.552-.931-14.32-3.924-34.759-3.924-34.759-3.095-25.687 3.982-57.116 3.982-57.116 5.754-16.987 23.69-23.328 37.42-25.675-9.548-1.635-17.062-1.336-17.062-1.336s-44.722-1.772-54.47 27.01c0 0-7.077 31.429-3.982 57.116 0 0 .19 1.3.489 3.469-3.234-2.154-9.256-5.129-12.201.088a4.442 4.442 0 0 0-.533 2.75c.396 3.102 1.53 11.402 2.948 16.718 0 0 1.159 24.982 13.5 23.728 1.924 5.965 16.805 47.975 54.249 47.558 6.316.075 11.995-1.061 17.062-3.046-10.251-3.964-18.076-11.314-23.853-18.953z"/><path style="fill:#354488" d="M327.007 77.306s-2.882-25.993-20.011-38.935a8.725 8.725 0 0 0-1.327-4.533c-7.348-11.903-22.401-24.961-53.082-24.961 0 0-64.247 4.079-62.84 57.736a7.078 7.078 0 0 0 3.641 6.023c-1.149 15.412-1.138 32.893 8.673 45.329 0 0 7-25.573 5.864-45.874a40.469 40.469 0 0 0 5.996-2.506s38.123-33.25 82.202-22.653c2.395.576 4.628.17 6.442-.864 8.846 8.486 18.726 27.231 15.905 68.428.001 0 12.594-10.261 8.537-37.19z"/><path style="fill:#2e3b6b" d="M213.887 66.617c.012.899.2 1.76.537 2.559-.325.262-.499.412-.499.412a41.253 41.253 0 0 1-5.991 2.509c1.136 20.295-5.871 45.869-5.871 45.869-9.811-12.432-9.818-29.918-8.67-45.333a7.084 7.084 0 0 1-3.645-6.016c-1.398-53.659 62.845-57.74 62.845-57.74 5.617 0 10.722.437 15.34 1.236-17.537 3.345-55.132 15.327-54.046 56.504z"/><path style="fill:#cb9b74" d="M409.151 122.539a2.988 2.988 0 0 1-2.121-.879c-4.57-4.569-12.005-4.569-16.575 0a2.998 2.998 0 0 1-4.242 0 2.998 2.998 0 0 1 0-4.242c6.908-6.909 18.151-6.909 25.06 0a2.998 2.998 0 0 1-2.122 5.121z"/><circle style="fill:#cb9b74" cx="399.492" cy="129.312" r="5.867"/><circle style="fill:#cb9b74" cx="449.502" cy="129.312" r="5.867"/><path style="fill:#cb9b74" d="M459.91 122.539a2.992 2.992 0 0 1-2.121-.878c-2.214-2.214-5.157-3.433-8.288-3.433s-6.073 1.219-8.287 3.433a3 3 0 1 1-4.242-4.243c3.347-3.347 7.796-5.19 12.529-5.19s9.184 1.843 12.53 5.19a3 3 0 0 1-2.121 5.121zM416.862 148.077a2.998 2.998 0 0 1-2.911-3.734l5.8-23a3 3 0 0 1 5.819 1.467l-5.801 23a3.002 3.002 0 0 1-2.907 2.267zM73.876 122.539a2.988 2.988 0 0 1-2.121-.879c-4.57-4.569-12.005-4.569-16.575 0a2.998 2.998 0 0 1-4.242 0 2.998 2.998 0 0 1 0-4.242c6.908-6.909 18.151-6.909 25.06 0a2.998 2.998 0 0 1-2.122 5.121z"/><circle style="fill:#cb9b74" cx="64.217" cy="129.312" r="5.867"/><circle style="fill:#cb9b74" cx="114.227" cy="129.312" r="5.867"/><path style="fill:#cb9b74" d="M124.636 122.539a2.992 2.992 0 0 1-2.121-.878c-2.214-2.214-5.157-3.433-8.288-3.433s-6.073 1.219-8.287 3.433a3 3 0 1 1-4.242-4.243c3.347-3.347 7.796-5.19 12.529-5.19s9.184 1.843 12.53 5.19a3 3 0 0 1-2.121 5.121zM81.587 148.077a2.998 2.998 0 0 1-2.911-3.734l5.8-23a3 3 0 0 1 5.819 1.467l-5.801 23a3.002 3.002 0 0 1-2.907 2.267z"/><g><path style="fill:#cb9b74" d="M245.274 104.061a3.213 3.213 0 0 1-2.278-.944c-4.908-4.906-12.891-4.906-17.798 0a3.22 3.22 0 1 1-4.555-4.555c7.418-7.419 19.491-7.419 26.908 0a3.22 3.22 0 0 1-2.277 5.499z"/><circle style="fill:#cb9b74" cx="234.903" cy="111.555" r="6.3"/><circle style="fill:#cb9b74" cx="288.602" cy="111.555" r="6.3"/><path style="fill:#cb9b74" d="M299.779 104.061a3.218 3.218 0 0 1-2.278-.943c-2.377-2.377-5.538-3.686-8.9-3.686s-6.521 1.309-8.899 3.686a3.221 3.221 0 1 1-4.555-4.555 18.9 18.9 0 0 1 13.454-5.573c5.083 0 9.861 1.979 13.455 5.573a3.222 3.222 0 0 1-2.277 5.498zM253.554 131.483a3.221 3.221 0 0 1-3.126-4.01l6.228-24.697a3.221 3.221 0 0 1 6.247 1.575l-6.229 24.697a3.22 3.22 0 0 1-3.12 2.435z"/></g><path style="fill:#fff" d="M479.251 131.243a4.55 4.55 0 0 0-6.266 1.455l-7.965 12.785h-20.556c-4.625-4.555-12.015-7.505-20.342-7.505-8.327 0-15.717 2.95-20.342 7.505h-21.34a5.955 5.955 0 0 0-5.958 5.958v27.663c1.938 4.794 5.449 12.18 10.889 19.212 24.497 8.596 49.013 8.596 73.519 0 5.431-7.032 8.942-14.418 10.88-19.212v-27.25l8.938-14.346a4.55 4.55 0 0 0-1.457-6.265z"/><path style="fill:#d6d5d4" d="M424.121 137.979c-8.323 0-15.719 2.947-20.34 7.505h-20.786l-7.605-12.568c-1.23-2.032-3.814-2.948-5.954-1.916a4.549 4.549 0 0 0-1.93 6.459l8.62 14.246c.108.179.228.348.355.506v26.894c1.938 4.794 5.449 12.18 10.889 19.212a116.85 116.85 0 0 0 13.245 3.802c-4.958-6.686-8.196-13.545-10.034-18.084v-27.663a5.958 5.958 0 0 1 5.958-5.958h10.05c5.848 0 11.665-1.274 16.836-4.007 4.165-2.202 9.276-3.498 14.795-3.498 1.128 0 2.238.055 3.32.164-4.547-3.157-10.669-5.094-17.419-5.094z"/><path style="fill:#fff" d="M320.626 113.722a5 5 0 0 0-6.888 1.6l-8.756 14.055h-22.597c-5.085-5.008-13.208-8.25-22.362-8.25-9.154 0-17.278 3.242-22.362 8.25h-23.459c-3.62 0-6.55 2.93-6.55 6.55v30.41c2.13 5.27 5.99 13.39 11.97 21.12 26.93 9.45 53.88 9.45 80.82 0 5.97-7.73 9.83-15.85 11.96-21.12v-29.956l9.826-15.771a5.002 5.002 0 0 0-1.602-6.888z"/><path style="fill:#d6d5d4" d="M260.021 121.127c-9.15 0-17.28 3.24-22.36 8.25h-22.85l-8.36-13.816c-1.352-2.234-4.193-3.241-6.545-2.107a5 5 0 0 0-2.121 7.1l9.476 15.661c.119.197.25.382.391.556v29.565c2.13 5.27 5.99 13.39 11.97 21.12 4.85 1.7 9.71 3.1 14.56 4.18-5.45-7.35-9.01-14.89-11.03-19.88v-30.41a6.55 6.55 0 0 1 6.55-6.55h11.048c6.429 0 12.824-1.4 18.507-4.405 4.578-2.421 10.197-3.845 16.264-3.845 1.24 0 2.46.06 3.65.18-5-3.469-11.73-5.599-19.15-5.599z"/><path style="fill:#fff" d="M143.976 131.243a4.55 4.55 0 0 0-6.266 1.455l-7.965 12.785H109.19c-4.625-4.555-12.015-7.505-20.342-7.505-8.327 0-15.717 2.95-20.342 7.505h-21.34a5.955 5.955 0 0 0-5.958 5.958v27.663c1.938 4.794 5.449 12.18 10.889 19.212 24.497 8.596 49.013 8.596 73.519 0 5.431-7.032 8.942-14.418 10.88-19.212v-27.25l8.938-14.346a4.549 4.549 0 0 0-1.458-6.265z"/><path style="fill:#d6d5d4" d="M88.846 137.979c-8.323 0-15.719 2.947-20.34 7.505H47.719l-7.605-12.568c-1.23-2.032-3.814-2.948-5.954-1.916a4.549 4.549 0 0 0-1.93 6.459l8.62 14.246c.108.179.228.348.355.506v26.894c1.938 4.794 5.449 12.18 10.889 19.212a116.85 116.85 0 0 0 13.245 3.802c-4.958-6.686-8.196-13.545-10.034-18.084v-27.663a5.958 5.958 0 0 1 5.958-5.958h10.05c5.848 0 11.665-1.274 16.836-4.007 4.165-2.202 9.276-3.498 14.795-3.498 1.128 0 2.238.055 3.32.164-4.546-3.157-10.668-5.094-17.418-5.094z"/></svg>